<mxfile host="app.diagrams.net" modified="2023-12-09T11:06:02.486Z" agent="Mozilla/5.0 (Macintosh; Intel Mac OS X 10_15_7) AppleWebKit/605.1.15 (KHTML, like Gecko) Version/17.1.2 Safari/605.1.15" etag="2B6Y8HMJQfGKwHiqWASk" version="22.1.7" type="device">
  <diagram id="C5RBs43oDa-KdzZeNtuy" name="Page-1">
    <mxGraphModel dx="853" dy="1250" grid="1" gridSize="10" guides="1" tooltips="1" connect="1" arrows="1" fold="1" page="1" pageScale="1" pageWidth="827" pageHeight="1169" math="0" shadow="0">
      <root>
        <mxCell id="WIyWlLk6GJQsqaUBKTNV-0" />
        <mxCell id="WIyWlLk6GJQsqaUBKTNV-1" parent="WIyWlLk6GJQsqaUBKTNV-0" />
        <mxCell id="zkfFHV4jXpPFQw0GAbJ--0" value="Head" style="swimlane;fontStyle=2;align=center;verticalAlign=top;childLayout=stackLayout;horizontal=1;startSize=26;horizontalStack=0;resizeParent=1;resizeLast=0;collapsible=1;marginBottom=0;rounded=0;shadow=0;strokeWidth=1;" parent="WIyWlLk6GJQsqaUBKTNV-1" vertex="1">
          <mxGeometry x="340" y="615" width="160" height="72" as="geometry">
            <mxRectangle x="230" y="140" width="160" height="26" as="alternateBounds" />
          </mxGeometry>
        </mxCell>
        <mxCell id="wfFl_hsdbpq3RDGNSiVr-14" style="edgeStyle=orthogonalEdgeStyle;rounded=0;orthogonalLoop=1;jettySize=auto;html=1;endArrow=diamondThin;endFill=1;strokeWidth=1;entryX=1;entryY=0.5;entryDx=0;entryDy=0;" parent="WIyWlLk6GJQsqaUBKTNV-1" source="wfFl_hsdbpq3RDGNSiVr-0" target="zkfFHV4jXpPFQw0GAbJ--0" edge="1">
          <mxGeometry relative="1" as="geometry">
            <mxPoint x="360" y="649.9940000000001" as="targetPoint" />
          </mxGeometry>
        </mxCell>
        <mxCell id="wfFl_hsdbpq3RDGNSiVr-0" value="HeadMove" style="swimlane;fontStyle=2;align=center;verticalAlign=top;childLayout=stackLayout;horizontal=1;startSize=26;horizontalStack=0;resizeParent=1;resizeLast=0;collapsible=1;marginBottom=0;rounded=0;shadow=0;strokeWidth=1;" parent="WIyWlLk6GJQsqaUBKTNV-1" vertex="1">
          <mxGeometry x="610" y="331" width="210" height="699" as="geometry">
            <mxRectangle x="230" y="140" width="160" height="26" as="alternateBounds" />
          </mxGeometry>
        </mxCell>
        <mxCell id="wfFl_hsdbpq3RDGNSiVr-4" value="" style="line;html=1;strokeWidth=1;align=left;verticalAlign=middle;spacingTop=-1;spacingLeft=3;spacingRight=3;rotatable=0;labelPosition=right;points=[];portConstraint=eastwest;" parent="wfFl_hsdbpq3RDGNSiVr-0" vertex="1">
          <mxGeometry y="26" width="210" height="8" as="geometry" />
        </mxCell>
        <mxCell id="wfFl_hsdbpq3RDGNSiVr-12" value="+ GameObject tail" style="text;whiteSpace=wrap;" parent="wfFl_hsdbpq3RDGNSiVr-0" vertex="1">
          <mxGeometry y="34" width="210" height="26" as="geometry" />
        </mxCell>
        <mxCell id="wfFl_hsdbpq3RDGNSiVr-18" value="+ float rotationSpeed" style="text;whiteSpace=wrap;" parent="wfFl_hsdbpq3RDGNSiVr-0" vertex="1">
          <mxGeometry y="60" width="210" height="30" as="geometry" />
        </mxCell>
        <mxCell id="wfFl_hsdbpq3RDGNSiVr-19" value="+ float rotRadius" style="text;whiteSpace=wrap;" parent="wfFl_hsdbpq3RDGNSiVr-0" vertex="1">
          <mxGeometry y="90" width="210" height="30" as="geometry" />
        </mxCell>
        <mxCell id="wfFl_hsdbpq3RDGNSiVr-25" value="+ Transform objTransform" style="text;whiteSpace=wrap;" parent="wfFl_hsdbpq3RDGNSiVr-0" vertex="1">
          <mxGeometry y="120" width="210" height="30" as="geometry" />
        </mxCell>
        <mxCell id="wfFl_hsdbpq3RDGNSiVr-28" value="+ float flownTime" style="text;whiteSpace=wrap;" parent="wfFl_hsdbpq3RDGNSiVr-0" vertex="1">
          <mxGeometry y="150" width="210" height="30" as="geometry" />
        </mxCell>
        <mxCell id="wfFl_hsdbpq3RDGNSiVr-27" value="+ Vector2 currentRotationPoint" style="text;whiteSpace=wrap;" parent="wfFl_hsdbpq3RDGNSiVr-0" vertex="1">
          <mxGeometry y="180" width="210" height="30" as="geometry" />
        </mxCell>
        <mxCell id="48Ve1QKPv-_KNe90CRF4-0" value="Transform GetHeadPos" style="text;whiteSpace=wrap;" vertex="1" parent="wfFl_hsdbpq3RDGNSiVr-0">
          <mxGeometry y="210" width="210" height="30" as="geometry" />
        </mxCell>
        <mxCell id="wfFl_hsdbpq3RDGNSiVr-20" value="float radius" style="text;whiteSpace=wrap;" parent="wfFl_hsdbpq3RDGNSiVr-0" vertex="1">
          <mxGeometry y="240" width="210" height="30" as="geometry" />
        </mxCell>
        <mxCell id="wfFl_hsdbpq3RDGNSiVr-21" value="float gapValue" style="text;whiteSpace=wrap;" parent="wfFl_hsdbpq3RDGNSiVr-0" vertex="1">
          <mxGeometry y="270" width="210" height="40" as="geometry" />
        </mxCell>
        <mxCell id="wfFl_hsdbpq3RDGNSiVr-22" value="GameObject head" style="text;whiteSpace=wrap;" parent="wfFl_hsdbpq3RDGNSiVr-0" vertex="1">
          <mxGeometry y="310" width="210" height="40" as="geometry" />
        </mxCell>
        <mxCell id="wfFl_hsdbpq3RDGNSiVr-23" value="List&lt;GameObject&gt; tails" style="text;whiteSpace=wrap;" parent="wfFl_hsdbpq3RDGNSiVr-0" vertex="1">
          <mxGeometry y="350" width="210" height="40" as="geometry" />
        </mxCell>
        <mxCell id="wfFl_hsdbpq3RDGNSiVr-24" value="List&lt;PointInfo&gt; rotPointInfo" style="text;whiteSpace=wrap;" parent="wfFl_hsdbpq3RDGNSiVr-0" vertex="1">
          <mxGeometry y="390" width="210" height="40" as="geometry" />
        </mxCell>
        <mxCell id="wfFl_hsdbpq3RDGNSiVr-26" value="Vector2 startRotationPos" style="text;whiteSpace=wrap;" parent="wfFl_hsdbpq3RDGNSiVr-0" vertex="1">
          <mxGeometry y="430" width="210" height="40" as="geometry" />
        </mxCell>
        <mxCell id="aDTXrSRt55NKPBYDI4_S-4" value="+ void AddTail(GameObject tail)" style="text;whiteSpace=wrap;" parent="wfFl_hsdbpq3RDGNSiVr-0" vertex="1">
          <mxGeometry y="470" width="210" height="40" as="geometry" />
        </mxCell>
        <mxCell id="aDTXrSRt55NKPBYDI4_S-0" value="void OnEnable()" style="text;whiteSpace=wrap;" parent="wfFl_hsdbpq3RDGNSiVr-0" vertex="1">
          <mxGeometry y="510" width="210" height="40" as="geometry" />
        </mxCell>
        <mxCell id="aDTXrSRt55NKPBYDI4_S-1" value="void Update()" style="text;whiteSpace=wrap;" parent="wfFl_hsdbpq3RDGNSiVr-0" vertex="1">
          <mxGeometry y="550" width="210" height="40" as="geometry" />
        </mxCell>
        <mxCell id="aDTXrSRt55NKPBYDI4_S-2" value="void Move()" style="text;whiteSpace=wrap;" parent="wfFl_hsdbpq3RDGNSiVr-0" vertex="1">
          <mxGeometry y="590" width="210" height="40" as="geometry" />
        </mxCell>
        <mxCell id="aDTXrSRt55NKPBYDI4_S-3" value="void TailMove()" style="text;whiteSpace=wrap;" parent="wfFl_hsdbpq3RDGNSiVr-0" vertex="1">
          <mxGeometry y="630" width="210" height="30" as="geometry" />
        </mxCell>
        <mxCell id="48Ve1QKPv-_KNe90CRF4-1" value="void GameOver()" style="text;whiteSpace=wrap;" vertex="1" parent="wfFl_hsdbpq3RDGNSiVr-0">
          <mxGeometry y="660" width="210" height="30" as="geometry" />
        </mxCell>
        <mxCell id="aDTXrSRt55NKPBYDI4_S-13" style="edgeStyle=orthogonalEdgeStyle;rounded=0;orthogonalLoop=1;jettySize=auto;html=1;endArrow=diamondThin;endFill=1;" parent="WIyWlLk6GJQsqaUBKTNV-1" source="aDTXrSRt55NKPBYDI4_S-5" edge="1">
          <mxGeometry relative="1" as="geometry">
            <mxPoint x="430" y="683" as="targetPoint" />
          </mxGeometry>
        </mxCell>
        <mxCell id="aDTXrSRt55NKPBYDI4_S-5" value="RigidBoody 2D" style="swimlane;fontStyle=2;align=center;verticalAlign=top;childLayout=stackLayout;horizontal=1;startSize=26;horizontalStack=0;resizeParent=1;resizeLast=0;collapsible=1;marginBottom=0;rounded=0;shadow=0;strokeWidth=1;" parent="WIyWlLk6GJQsqaUBKTNV-1" vertex="1">
          <mxGeometry x="430" y="733" width="160" height="62" as="geometry">
            <mxRectangle x="230" y="140" width="160" height="26" as="alternateBounds" />
          </mxGeometry>
        </mxCell>
        <mxCell id="aDTXrSRt55NKPBYDI4_S-12" style="edgeStyle=orthogonalEdgeStyle;rounded=0;orthogonalLoop=1;jettySize=auto;html=1;endArrow=diamondThin;endFill=1;" parent="WIyWlLk6GJQsqaUBKTNV-1" source="aDTXrSRt55NKPBYDI4_S-11" edge="1">
          <mxGeometry relative="1" as="geometry">
            <mxPoint x="410" y="683" as="targetPoint" />
          </mxGeometry>
        </mxCell>
        <mxCell id="aDTXrSRt55NKPBYDI4_S-11" value="Circle Collider 2D" style="swimlane;fontStyle=2;align=center;verticalAlign=top;childLayout=stackLayout;horizontal=1;startSize=26;horizontalStack=0;resizeParent=1;resizeLast=0;collapsible=1;marginBottom=0;rounded=0;shadow=0;strokeWidth=1;" parent="WIyWlLk6GJQsqaUBKTNV-1" vertex="1">
          <mxGeometry x="250" y="733" width="160" height="62" as="geometry">
            <mxRectangle x="230" y="140" width="160" height="26" as="alternateBounds" />
          </mxGeometry>
        </mxCell>
        <mxCell id="aDTXrSRt55NKPBYDI4_S-34" style="edgeStyle=orthogonalEdgeStyle;rounded=0;orthogonalLoop=1;jettySize=auto;html=1;entryX=1;entryY=0.5;entryDx=0;entryDy=0;endArrow=block;endFill=0;" parent="WIyWlLk6GJQsqaUBKTNV-1" source="aDTXrSRt55NKPBYDI4_S-15" target="wfFl_hsdbpq3RDGNSiVr-0" edge="1">
          <mxGeometry relative="1" as="geometry">
            <mxPoint x="829.9999999999998" y="651" as="targetPoint" />
          </mxGeometry>
        </mxCell>
        <mxCell id="aDTXrSRt55NKPBYDI4_S-53" style="edgeStyle=orthogonalEdgeStyle;rounded=0;orthogonalLoop=1;jettySize=auto;html=1;entryX=0;entryY=0.5;entryDx=0;entryDy=0;endArrow=diamondThin;endFill=0;" parent="WIyWlLk6GJQsqaUBKTNV-1" source="aDTXrSRt55NKPBYDI4_S-15" target="aDTXrSRt55NKPBYDI4_S-41" edge="1">
          <mxGeometry relative="1" as="geometry" />
        </mxCell>
        <mxCell id="aDTXrSRt55NKPBYDI4_S-15" value="TailMove" style="swimlane;fontStyle=2;align=center;verticalAlign=top;childLayout=stackLayout;horizontal=1;startSize=26;horizontalStack=0;resizeParent=1;resizeLast=0;collapsible=1;marginBottom=0;rounded=0;shadow=0;strokeWidth=1;" parent="WIyWlLk6GJQsqaUBKTNV-1" vertex="1">
          <mxGeometry x="880" y="506.5" width="210" height="289" as="geometry">
            <mxRectangle x="230" y="140" width="160" height="26" as="alternateBounds" />
          </mxGeometry>
        </mxCell>
        <mxCell id="aDTXrSRt55NKPBYDI4_S-16" value="" style="line;html=1;strokeWidth=1;align=left;verticalAlign=middle;spacingTop=-1;spacingLeft=3;spacingRight=3;rotatable=0;labelPosition=right;points=[];portConstraint=eastwest;" parent="aDTXrSRt55NKPBYDI4_S-15" vertex="1">
          <mxGeometry y="26" width="210" height="8" as="geometry" />
        </mxCell>
        <mxCell id="aDTXrSRt55NKPBYDI4_S-35" value="+ int pointIndex" style="text;whiteSpace=wrap;" parent="aDTXrSRt55NKPBYDI4_S-15" vertex="1">
          <mxGeometry y="34" width="210" height="26" as="geometry" />
        </mxCell>
        <mxCell id="aDTXrSRt55NKPBYDI4_S-36" value="void OnEnable()" style="text;whiteSpace=wrap;" parent="aDTXrSRt55NKPBYDI4_S-15" vertex="1">
          <mxGeometry y="60" width="210" height="40" as="geometry" />
        </mxCell>
        <mxCell id="aDTXrSRt55NKPBYDI4_S-37" value="void Update()" style="text;whiteSpace=wrap;" parent="aDTXrSRt55NKPBYDI4_S-15" vertex="1">
          <mxGeometry y="100" width="210" height="40" as="geometry" />
        </mxCell>
        <mxCell id="aDTXrSRt55NKPBYDI4_S-38" value="void Move()" style="text;whiteSpace=wrap;" parent="aDTXrSRt55NKPBYDI4_S-15" vertex="1">
          <mxGeometry y="140" width="210" height="40" as="geometry" />
        </mxCell>
        <mxCell id="aDTXrSRt55NKPBYDI4_S-39" value="void SetInfo(PointInfo inputInfo, int index, float speed, float rotRadi, float currentFlownTime)" style="text;whiteSpace=wrap;" parent="aDTXrSRt55NKPBYDI4_S-15" vertex="1">
          <mxGeometry y="180" width="210" height="60" as="geometry" />
        </mxCell>
        <mxCell id="aDTXrSRt55NKPBYDI4_S-40" value="void SetInfo(PointInfo inputInfo)" style="text;whiteSpace=wrap;" parent="aDTXrSRt55NKPBYDI4_S-15" vertex="1">
          <mxGeometry y="240" width="210" height="40" as="geometry" />
        </mxCell>
        <mxCell id="aDTXrSRt55NKPBYDI4_S-41" value="Tail&#xa;" style="swimlane;fontStyle=2;align=center;verticalAlign=top;childLayout=stackLayout;horizontal=1;startSize=26;horizontalStack=0;resizeParent=1;resizeLast=0;collapsible=1;marginBottom=0;rounded=0;shadow=0;strokeWidth=1;" parent="WIyWlLk6GJQsqaUBKTNV-1" vertex="1">
          <mxGeometry x="1150" y="621" width="160" height="60" as="geometry">
            <mxRectangle x="230" y="140" width="160" height="26" as="alternateBounds" />
          </mxGeometry>
        </mxCell>
        <mxCell id="aDTXrSRt55NKPBYDI4_S-48" style="edgeStyle=orthogonalEdgeStyle;rounded=0;orthogonalLoop=1;jettySize=auto;html=1;endArrow=diamondThin;endFill=1;entryX=0.75;entryY=1;entryDx=0;entryDy=0;" parent="WIyWlLk6GJQsqaUBKTNV-1" source="aDTXrSRt55NKPBYDI4_S-49" target="aDTXrSRt55NKPBYDI4_S-41" edge="1">
          <mxGeometry relative="1" as="geometry">
            <mxPoint x="1290" y="692" as="targetPoint" />
          </mxGeometry>
        </mxCell>
        <mxCell id="aDTXrSRt55NKPBYDI4_S-49" value="RigidBoody 2D" style="swimlane;fontStyle=2;align=center;verticalAlign=top;childLayout=stackLayout;horizontal=1;startSize=26;horizontalStack=0;resizeParent=1;resizeLast=0;collapsible=1;marginBottom=0;rounded=0;shadow=0;strokeWidth=1;" parent="WIyWlLk6GJQsqaUBKTNV-1" vertex="1">
          <mxGeometry x="1290" y="742" width="160" height="62" as="geometry">
            <mxRectangle x="230" y="140" width="160" height="26" as="alternateBounds" />
          </mxGeometry>
        </mxCell>
        <mxCell id="aDTXrSRt55NKPBYDI4_S-50" style="edgeStyle=orthogonalEdgeStyle;rounded=0;orthogonalLoop=1;jettySize=auto;html=1;endArrow=diamondThin;endFill=1;entryX=0.25;entryY=1;entryDx=0;entryDy=0;" parent="WIyWlLk6GJQsqaUBKTNV-1" source="aDTXrSRt55NKPBYDI4_S-51" target="aDTXrSRt55NKPBYDI4_S-41" edge="1">
          <mxGeometry relative="1" as="geometry">
            <mxPoint x="1270" y="692" as="targetPoint" />
          </mxGeometry>
        </mxCell>
        <mxCell id="aDTXrSRt55NKPBYDI4_S-51" value="Circle Collider 2D" style="swimlane;fontStyle=2;align=center;verticalAlign=top;childLayout=stackLayout;horizontal=1;startSize=26;horizontalStack=0;resizeParent=1;resizeLast=0;collapsible=1;marginBottom=0;rounded=0;shadow=0;strokeWidth=1;" parent="WIyWlLk6GJQsqaUBKTNV-1" vertex="1">
          <mxGeometry x="1110" y="742" width="160" height="62" as="geometry">
            <mxRectangle x="230" y="140" width="160" height="26" as="alternateBounds" />
          </mxGeometry>
        </mxCell>
        <mxCell id="aDTXrSRt55NKPBYDI4_S-54" value="" style="shape=folder;fontStyle=1;spacingTop=10;tabWidth=103;tabHeight=42;tabPosition=left;html=1;whiteSpace=wrap;" parent="WIyWlLk6GJQsqaUBKTNV-1" vertex="1">
          <mxGeometry x="310" y="140" width="522.5" height="140" as="geometry" />
        </mxCell>
        <mxCell id="wfFl_hsdbpq3RDGNSiVr-6" value="MonoBeheiva" style="swimlane;fontStyle=2;align=center;verticalAlign=top;childLayout=stackLayout;horizontal=1;startSize=26;horizontalStack=0;resizeParent=1;resizeLast=0;collapsible=1;marginBottom=0;rounded=0;shadow=0;strokeWidth=1;" parent="WIyWlLk6GJQsqaUBKTNV-1" vertex="1">
          <mxGeometry x="635" y="200" width="160" height="58" as="geometry">
            <mxRectangle x="230" y="140" width="160" height="26" as="alternateBounds" />
          </mxGeometry>
        </mxCell>
        <mxCell id="wfFl_hsdbpq3RDGNSiVr-10" value="" style="line;html=1;strokeWidth=1;align=left;verticalAlign=middle;spacingTop=-1;spacingLeft=3;spacingRight=3;rotatable=0;labelPosition=right;points=[];portConstraint=eastwest;" parent="wfFl_hsdbpq3RDGNSiVr-6" vertex="1">
          <mxGeometry y="26" width="160" height="8" as="geometry" />
        </mxCell>
        <mxCell id="aDTXrSRt55NKPBYDI4_S-55" value="&lt;span style=&quot;color: rgb(0, 0, 0); font-family: Helvetica; font-size: 12px; font-style: normal; font-variant-ligatures: normal; font-variant-caps: normal; font-weight: 700; letter-spacing: normal; orphans: 2; text-indent: 0px; text-transform: none; widows: 2; word-spacing: 0px; -webkit-text-stroke-width: 0px; background-color: rgb(251, 251, 251); text-decoration-thickness: initial; text-decoration-style: initial; text-decoration-color: initial; float: none; display: inline !important;&quot;&gt;UnityEngine&lt;/span&gt;" style="text;whiteSpace=wrap;html=1;align=center;verticalAlign=middle;" parent="WIyWlLk6GJQsqaUBKTNV-1" vertex="1">
          <mxGeometry x="310" y="140" width="100" height="40" as="geometry" />
        </mxCell>
        <mxCell id="wfFl_hsdbpq3RDGNSiVr-13" style="edgeStyle=orthogonalEdgeStyle;rounded=0;orthogonalLoop=1;jettySize=auto;html=1;entryX=0.5;entryY=1;entryDx=0;entryDy=0;endArrow=block;endFill=0;" parent="WIyWlLk6GJQsqaUBKTNV-1" source="wfFl_hsdbpq3RDGNSiVr-0" target="wfFl_hsdbpq3RDGNSiVr-6" edge="1">
          <mxGeometry relative="1" as="geometry" />
        </mxCell>
        <mxCell id="aDTXrSRt55NKPBYDI4_S-67" style="edgeStyle=orthogonalEdgeStyle;rounded=0;orthogonalLoop=1;jettySize=auto;html=1;entryX=1;entryY=0.5;entryDx=0;entryDy=0;endArrow=block;endFill=0;" parent="WIyWlLk6GJQsqaUBKTNV-1" source="aDTXrSRt55NKPBYDI4_S-56" target="wfFl_hsdbpq3RDGNSiVr-6" edge="1">
          <mxGeometry relative="1" as="geometry" />
        </mxCell>
        <mxCell id="aDTXrSRt55NKPBYDI4_S-56" value="itemInfoHolder" style="swimlane;fontStyle=2;align=center;verticalAlign=top;childLayout=stackLayout;horizontal=1;startSize=26;horizontalStack=0;resizeParent=1;resizeLast=0;collapsible=1;marginBottom=0;rounded=0;shadow=0;strokeWidth=1;" parent="WIyWlLk6GJQsqaUBKTNV-1" vertex="1">
          <mxGeometry x="900" y="152" width="210" height="154" as="geometry">
            <mxRectangle x="230" y="140" width="160" height="26" as="alternateBounds" />
          </mxGeometry>
        </mxCell>
        <mxCell id="aDTXrSRt55NKPBYDI4_S-57" value="" style="line;html=1;strokeWidth=1;align=left;verticalAlign=middle;spacingTop=-1;spacingLeft=3;spacingRight=3;rotatable=0;labelPosition=right;points=[];portConstraint=eastwest;" parent="aDTXrSRt55NKPBYDI4_S-56" vertex="1">
          <mxGeometry y="26" width="210" height="8" as="geometry" />
        </mxCell>
        <mxCell id="aDTXrSRt55NKPBYDI4_S-64" value="- int tailNumber" style="text;whiteSpace=wrap;" parent="aDTXrSRt55NKPBYDI4_S-56" vertex="1">
          <mxGeometry y="34" width="210" height="40" as="geometry" />
        </mxCell>
        <mxCell id="aDTXrSRt55NKPBYDI4_S-65" value="- int GetValue()" style="text;whiteSpace=wrap;" parent="aDTXrSRt55NKPBYDI4_S-56" vertex="1">
          <mxGeometry y="74" width="210" height="40" as="geometry" />
        </mxCell>
        <mxCell id="aDTXrSRt55NKPBYDI4_S-66" value="+ GameObject getTail()" style="text;whiteSpace=wrap;" parent="aDTXrSRt55NKPBYDI4_S-56" vertex="1">
          <mxGeometry y="114" width="210" height="40" as="geometry" />
        </mxCell>
        <mxCell id="aDTXrSRt55NKPBYDI4_S-84" style="edgeStyle=orthogonalEdgeStyle;rounded=0;orthogonalLoop=1;jettySize=auto;html=1;entryX=0.75;entryY=0;entryDx=0;entryDy=0;endArrow=blockThin;endFill=0;" parent="WIyWlLk6GJQsqaUBKTNV-1" source="aDTXrSRt55NKPBYDI4_S-73" target="aDTXrSRt55NKPBYDI4_S-80" edge="1">
          <mxGeometry relative="1" as="geometry">
            <Array as="points">
              <mxPoint x="1230" y="110" />
              <mxPoint x="460" y="110" />
            </Array>
          </mxGeometry>
        </mxCell>
        <mxCell id="aDTXrSRt55NKPBYDI4_S-73" value="Item" style="swimlane;fontStyle=2;align=center;verticalAlign=top;childLayout=stackLayout;horizontal=1;startSize=26;horizontalStack=0;resizeParent=1;resizeLast=0;collapsible=1;marginBottom=0;rounded=0;shadow=0;strokeWidth=1;" parent="WIyWlLk6GJQsqaUBKTNV-1" vertex="1">
          <mxGeometry x="1150" y="216" width="160" height="60" as="geometry">
            <mxRectangle x="230" y="140" width="160" height="26" as="alternateBounds" />
          </mxGeometry>
        </mxCell>
        <mxCell id="aDTXrSRt55NKPBYDI4_S-76" style="edgeStyle=orthogonalEdgeStyle;rounded=0;orthogonalLoop=1;jettySize=auto;html=1;endArrow=diamondThin;endFill=1;entryX=0.5;entryY=1;entryDx=0;entryDy=0;" parent="WIyWlLk6GJQsqaUBKTNV-1" source="aDTXrSRt55NKPBYDI4_S-77" target="aDTXrSRt55NKPBYDI4_S-73" edge="1">
          <mxGeometry relative="1" as="geometry">
            <mxPoint x="1240" y="241" as="targetPoint" />
          </mxGeometry>
        </mxCell>
        <mxCell id="aDTXrSRt55NKPBYDI4_S-77" value="Circle Collider 2D" style="swimlane;fontStyle=2;align=center;verticalAlign=top;childLayout=stackLayout;horizontal=1;startSize=26;horizontalStack=0;resizeParent=1;resizeLast=0;collapsible=1;marginBottom=0;rounded=0;shadow=0;strokeWidth=1;" parent="WIyWlLk6GJQsqaUBKTNV-1" vertex="1">
          <mxGeometry x="1150" y="306" width="160" height="62" as="geometry">
            <mxRectangle x="230" y="140" width="160" height="26" as="alternateBounds" />
          </mxGeometry>
        </mxCell>
        <mxCell id="aDTXrSRt55NKPBYDI4_S-78" style="edgeStyle=orthogonalEdgeStyle;rounded=0;orthogonalLoop=1;jettySize=auto;html=1;entryX=0;entryY=0.5;entryDx=0;entryDy=0;endArrow=diamondThin;endFill=1;" parent="WIyWlLk6GJQsqaUBKTNV-1" source="aDTXrSRt55NKPBYDI4_S-65" target="aDTXrSRt55NKPBYDI4_S-73" edge="1">
          <mxGeometry relative="1" as="geometry" />
        </mxCell>
        <mxCell id="aDTXrSRt55NKPBYDI4_S-80" value="GameObject" style="swimlane;fontStyle=2;align=center;verticalAlign=top;childLayout=stackLayout;horizontal=1;startSize=26;horizontalStack=0;resizeParent=1;resizeLast=0;collapsible=1;marginBottom=0;rounded=0;shadow=0;strokeWidth=1;" parent="WIyWlLk6GJQsqaUBKTNV-1" vertex="1">
          <mxGeometry x="340" y="200" width="160" height="58" as="geometry">
            <mxRectangle x="230" y="140" width="160" height="26" as="alternateBounds" />
          </mxGeometry>
        </mxCell>
        <mxCell id="aDTXrSRt55NKPBYDI4_S-81" value="" style="line;html=1;strokeWidth=1;align=left;verticalAlign=middle;spacingTop=-1;spacingLeft=3;spacingRight=3;rotatable=0;labelPosition=right;points=[];portConstraint=eastwest;" parent="aDTXrSRt55NKPBYDI4_S-80" vertex="1">
          <mxGeometry y="26" width="160" height="8" as="geometry" />
        </mxCell>
        <mxCell id="aDTXrSRt55NKPBYDI4_S-83" style="edgeStyle=orthogonalEdgeStyle;rounded=0;orthogonalLoop=1;jettySize=auto;html=1;entryX=0.5;entryY=1;entryDx=0;entryDy=0;endArrow=block;endFill=0;" parent="WIyWlLk6GJQsqaUBKTNV-1" source="zkfFHV4jXpPFQw0GAbJ--0" target="aDTXrSRt55NKPBYDI4_S-80" edge="1">
          <mxGeometry relative="1" as="geometry" />
        </mxCell>
        <mxCell id="aDTXrSRt55NKPBYDI4_S-88" style="edgeStyle=orthogonalEdgeStyle;rounded=0;orthogonalLoop=1;jettySize=auto;html=1;entryX=0.75;entryY=1;entryDx=0;entryDy=0;endArrow=block;endFill=0;" parent="WIyWlLk6GJQsqaUBKTNV-1" source="aDTXrSRt55NKPBYDI4_S-41" target="aDTXrSRt55NKPBYDI4_S-80" edge="1">
          <mxGeometry relative="1" as="geometry">
            <Array as="points">
              <mxPoint x="1230" y="550" />
              <mxPoint x="1110" y="550" />
              <mxPoint x="1110" y="320" />
              <mxPoint x="460" y="320" />
            </Array>
          </mxGeometry>
        </mxCell>
        <mxCell id="48Ve1QKPv-_KNe90CRF4-2" value="PointInfo" style="swimlane;fontStyle=2;align=center;verticalAlign=top;childLayout=stackLayout;horizontal=1;startSize=26;horizontalStack=0;resizeParent=1;resizeLast=0;collapsible=1;marginBottom=0;rounded=0;shadow=0;strokeWidth=1;" vertex="1" parent="WIyWlLk6GJQsqaUBKTNV-1">
          <mxGeometry x="380" y="840" width="210" height="190" as="geometry">
            <mxRectangle x="230" y="140" width="160" height="26" as="alternateBounds" />
          </mxGeometry>
        </mxCell>
        <mxCell id="48Ve1QKPv-_KNe90CRF4-3" value="" style="line;html=1;strokeWidth=1;align=left;verticalAlign=middle;spacingTop=-1;spacingLeft=3;spacingRight=3;rotatable=0;labelPosition=right;points=[];portConstraint=eastwest;" vertex="1" parent="48Ve1QKPv-_KNe90CRF4-2">
          <mxGeometry y="26" width="210" height="8" as="geometry" />
        </mxCell>
        <mxCell id="48Ve1QKPv-_KNe90CRF4-4" value="+ bools isTurnClockwise" style="text;whiteSpace=wrap;" vertex="1" parent="48Ve1QKPv-_KNe90CRF4-2">
          <mxGeometry y="34" width="210" height="26" as="geometry" />
        </mxCell>
        <mxCell id="48Ve1QKPv-_KNe90CRF4-5" value="+ float startAngle" style="text;whiteSpace=wrap;" vertex="1" parent="48Ve1QKPv-_KNe90CRF4-2">
          <mxGeometry y="60" width="210" height="30" as="geometry" />
        </mxCell>
        <mxCell id="48Ve1QKPv-_KNe90CRF4-6" value="+ Vector2 rotationCenter" style="text;whiteSpace=wrap;" vertex="1" parent="48Ve1QKPv-_KNe90CRF4-2">
          <mxGeometry y="90" width="210" height="30" as="geometry" />
        </mxCell>
        <mxCell id="48Ve1QKPv-_KNe90CRF4-7" value="+ float startTime" style="text;whiteSpace=wrap;" vertex="1" parent="48Ve1QKPv-_KNe90CRF4-2">
          <mxGeometry y="120" width="210" height="30" as="geometry" />
        </mxCell>
        <mxCell id="48Ve1QKPv-_KNe90CRF4-8" value="+ float endTime" style="text;whiteSpace=wrap;" vertex="1" parent="48Ve1QKPv-_KNe90CRF4-2">
          <mxGeometry y="150" width="210" height="30" as="geometry" />
        </mxCell>
      </root>
    </mxGraphModel>
  </diagram>
</mxfile>
